# Blender 3.4.1
# www.blender.org
mtllib boulder.mtl
o Icosphere
v -0.235241 -0.700735 -0.724007
v 0.003618 0.523793 0.892291
v -0.584116 0.361004 -0.796989
v 0.521546 0.523791 -0.724008
v 0.849739 0.523791 0.272290
v -0.178166 1.060728 -0.129444
v 0.178166 -1.060728 0.129444
v -0.003618 -0.523793 0.892291
v 0.847501 -0.523790 0.279175
v -0.850254 -0.671351 -0.000000
v 0.527408 -0.523791 -0.719748
v 1.043889 0.053589 -0.000000
v 0.322581 0.053590 0.992798
v -0.889814 0.356723 0.520931
v -1.043889 -0.053590 -0.000000
v 0.322581 0.053590 -0.992798
v 0.338902 0.957651 0.246226
vn -0.3185 -0.9188 -0.2333
vn -0.7364 -0.2842 -0.6140
vn 0.8090 0.0090 0.5878
vn -0.3543 0.0375 0.9344
vn -0.2571 -0.1501 -0.9547
vn 0.8090 0.0090 -0.5878
vn 0.4741 0.5971 0.6470
vn -0.3510 0.8017 0.4838
vn -0.7690 0.6144 -0.1764
vn -0.0574 0.7064 -0.7055
vn 0.6391 0.7398 -0.2105
vn 0.3980 0.8631 -0.3110
vn -0.1796 0.8573 0.4825
vn 0.8240 0.4974 -0.2714
vn 0.8090 -0.0063 -0.5878
vn -0.0167 0.5015 -0.8650
vn -0.8170 0.5452 -0.1877
vn -0.3743 -0.0560 0.9256
vn 0.5128 0.4974 0.6998
vn 0.8090 -0.0063 0.5878
vn 0.0972 -0.3971 -0.9126
vn -0.7795 -0.2443 -0.5768
vn -0.8474 -0.2656 0.4598
vn -0.6444 -0.3652 0.6718
vn 0.5287 -0.4264 0.7339
vn 0.8614 -0.4264 -0.2760
vn 0.2029 -0.8632 -0.4624
vn -0.3631 -0.8005 0.4769
vn 0.6399 -0.7406 -0.2051
vn 0.4227 -0.6906 0.5868
vt -0.106716 0.696226
vt 1.459747 0.000000
vt 0.856708 0.157180
vt -0.581335 0.258579
vt 1.344758 0.662353
vt 0.277178 0.632999
vt 1.909182 0.191841
vt 1.140046 0.113655
vt 0.898970 0.000000
vt 1.909182 0.720698
vt -0.582924 0.799415
vt 0.972491 0.518112
vt -0.909182 0.493797
vt -0.283491 0.472924
vt 1.344758 0.488853
vt 0.277178 0.339595
vt -0.283491 0.256070
vt 0.519121 0.171528
vt -0.283491 0.796889
vt 1.555749 0.727366
vt 0.401298 0.012216
vt -0.052733 0.208399
vt 0.485464 0.798171
vt 1.556182 0.199444
vt -0.468964 0.963332
vt 1.764355 0.651826
vt 0.683433 0.000000
vt -0.397214 0.360913
vt -0.687608 0.000000
vt 1.125342 0.885589
vt 0.277178 0.000000
vt 0.856708 0.641466
vt 0.168805 0.157257
vt 0.702140 0.871032
vt 0.092179 0.993019
vt 1.344758 0.182696
vt 1.745308 0.022334
vt 0.856708 0.272752
vt -0.766355 0.594596
s 0
usemtl Material.001
f 7/14/1 10/22/1 1/1/1
f 1/1/2 10/22/2 3/6/2
f 9/19/3 12/25/3 13/28/3
f 8/18/4 13/27/4 14/32/4
f 1/1/5 3/6/5 16/35/5
f 11/24/6 16/37/6 12/26/6
f 2/4/7 5/11/7 17/39/7
f 14/29/8 2/4/8 6/13/8
f 3/5/9 14/30/9 6/12/9
f 4/8/10 3/5/10 6/12/10
f 5/9/11 4/8/11 17/38/11
f 17/38/12 4/8/12 6/12/12
f 6/13/13 2/4/13 17/39/13
f 12/26/14 4/7/14 5/10/14
f 12/26/15 16/37/15 4/7/15
f 16/36/16 3/5/16 4/8/16
f 15/33/17 14/31/17 3/6/17
f 14/32/18 13/27/18 2/3/18
f 13/28/19 5/11/19 2/4/19
f 13/28/20 12/25/20 5/11/20
f 11/24/21 1/2/21 16/37/21
f 3/6/22 10/22/22 15/33/22
f 15/34/23 10/23/23 14/32/23
f 10/23/24 8/18/24 14/32/24
f 8/17/25 9/19/25 13/28/25
f 9/20/26 11/24/26 12/26/26
f 7/15/27 1/2/27 11/24/27
f 7/16/28 8/18/28 10/23/28
f 9/20/29 7/15/29 11/24/29
f 7/16/30 9/21/30 8/18/30
