# Blender 3.4.1
# www.blender.org
mtllib chest_body.mtl
o chest_body
v -0.700000 0.300000 0.500000
v -0.700000 -0.400000 0.500000
v -0.700000 0.300000 -0.500000
v -0.700000 -0.400000 -0.500000
v 0.700000 0.300000 0.500000
v 0.700000 -0.400000 0.500000
v 0.700000 0.300000 -0.500000
v 0.700000 -0.400000 -0.500000
vn -0.0000 -0.0000 -1.0000
vn 1.0000 -0.0000 -0.0000
vn -0.0000 -0.0000 1.0000
vn -0.0000 -1.0000 -0.0000
vn -1.0000 -0.0000 -0.0000
vn -0.0000 1.0000 -0.0000
vt 0.333333 0.000000
vt 0.333333 1.000000
vt 0.677083 0.031250
vt 0.333333 0.750000
vt 0.375000 0.750000
vt 0.666667 1.000000
vt 0.500000 0.000000
vt 0.333333 0.000000
vt 0.677083 0.968750
vt 0.500000 1.000000
vt 0.125000 0.750000
vt 0.666667 0.000000
vt 0.333333 1.000000
vt 0.000000 -0.000000
vt 0.989583 0.031250
vt 0.666667 1.000000
vt 0.000000 0.750000
vt 0.375000 0.750000
vt 0.500000 0.000000
vt 0.333333 0.000000
vt 0.989583 0.968750
vt 0.500000 1.000000
vt 0.666667 0.000000
vt 0.125000 0.750000
s 0
usemtl Material.002
f 8/22/1 4/10/1 3/7/1 7/19/1
f 6/16/2 8/23/2 7/20/2 5/13/2
f 2/4/3 6/17/3 5/14/3 1/1/3
f 4/11/4 8/24/4 6/18/4 2/5/4
f 1/2/5 3/8/5 4/12/5 2/6/5
f 5/15/6 7/21/6 3/9/6
f 5/15/6 3/9/6 1/3/6
