# Blender 3.4.1
# www.blender.org
mtllib door_0.mtl
o door_0
v 1.000000 1.000000 -0.200000
v 1.000000 -1.000000 -0.200000
v 1.000000 1.000000 0.200000
v 1.000000 -1.000000 0.200000
v -1.000000 1.000000 -0.200000
v -1.000000 -1.000000 -0.200000
v -1.000000 1.000000 0.200000
v -1.000000 -1.000000 0.200000
vn -0.0000 1.0000 -0.0000
vn -0.0000 -0.0000 1.0000
vn -1.0000 -0.0000 -0.0000
vn -0.0000 -1.0000 -0.0000
vn 1.0000 -0.0000 -0.0000
vn -0.0000 -0.0000 -1.0000
vt 1.000000 0.000000
vt 0.625000 0.500000
vt 0.843750 1.000000
vt 0.375000 0.500000
vt 0.843750 0.000000
vt 0.843750 0.000000
vt 0.843750 1.000000
vt 0.625000 0.750000
vt 0.843750 -0.000000
vt 0.375000 0.750000
vt 1.000000 1.000000
vt 0.625000 0.250000
vt 0.000000 1.000000
vt 0.375000 0.250000
vt 0.125000 0.500000
vt 0.000000 -0.000000
vt 0.843750 1.000000
vt 0.000000 1.000000
vt 0.625000 0.000000
vt -0.000000 0.000000
vt 0.375000 0.000000
vt 0.125000 0.750000
s 0
usemtl Material
f 1/1/1 5/11/1 7/17/1 3/6/1
f 4/9/2 3/7/2 7/18/2 8/20/2
f 8/21/3 7/19/3 5/12/3 6/14/3
f 6/15/4 2/4/4 4/10/4 8/22/4
f 2/4/5 1/2/5 3/8/5 4/10/5
f 6/16/6 5/13/6 1/3/6 2/5/6
