# Blender 3.4.1
# www.blender.org
mtllib dungeon_wall_torch.mtl
o dungeon_wall
v 1.000000 1.000000 -1.000000
v 1.000000 -1.000000 -1.000000
v 1.000000 1.000000 1.000000
v 1.000000 -1.000000 1.000000
v -1.000000 1.000000 -1.000000
v -1.000000 -1.000000 -1.000000
v -1.000000 1.000000 1.000000
v -1.000000 -1.000000 1.000000
vn -0.0000 1.0000 -0.0000
vn -0.0000 -0.0000 1.0000
vn -1.0000 -0.0000 -0.0000
vn -0.0000 -1.0000 -0.0000
vn 1.0000 -0.0000 -0.0000
vn -0.0000 -0.0000 -1.0000
vt 0.500000 0.000000
vt 0.500000 1.000000
vt 0.000000 1.000000
vt 0.750000 0.000000
vt 0.500000 0.000000
vt -0.000000 0.000000
vt 0.500000 1.000000
vt 0.250000 1.000000
vt 0.500000 0.000000
vt 0.750000 1.000000
vt 0.250000 0.000000
vt 0.750000 0.000000
vt 0.250000 1.000000
vt 0.500000 0.000000
vt 0.250000 0.000000
vt 0.750000 1.000000
vt 0.250000 1.000000
vt 0.500000 1.000000
vt 0.250000 0.000000
vt 0.500000 0.000000
vt 0.500000 1.000000
s 0
usemtl Material
f 1/1/1 5/12/1 7/16/1 3/7/1
f 4/9/2 3/7/2 7/17/2 8/19/2
f 8/20/3 7/18/3 5/13/3 6/15/3
f 6/14/4 2/4/4 4/10/4 8/21/4
f 2/5/5 1/2/5 3/8/5 4/11/5
f 6/15/6 5/13/6 1/3/6 2/6/6
