# Blender 3.4.1
# www.blender.org
mtllib dungeon_wall.mtl
o dungeon_wall
v 1.000000 1.000000 -1.000000
v 1.000000 -1.000000 -1.000000
v 1.000000 1.000000 1.000000
v 1.000000 -1.000000 1.000000
v -1.000000 1.000000 -1.000000
v -1.000000 -1.000000 -1.000000
v -1.000000 1.000000 1.000000
v -1.000000 -1.000000 1.000000
vn -0.0000 1.0000 -0.0000
vn -0.0000 -0.0000 1.0000
vn -1.0000 -0.0000 -0.0000
vn -0.0000 -1.0000 -0.0000
vn 1.0000 -0.0000 -0.0000
vn -0.0000 -0.0000 -1.0000
vt 0.333333 0.000000
vt 0.333333 1.000000
vt 0.000000 1.000000
vt 0.666667 0.000000
vt 0.333333 0.000000
vt -0.000000 0.000000
vt 0.333333 1.000000
vt 0.000000 1.000000
vt 0.333333 -0.000000
vt 0.666667 1.000000
vt 0.000000 0.000000
vt 0.666667 0.000000
vt 0.000000 1.000000
vt 0.333333 1.000000
vt -0.000000 0.000000
vt 0.333333 -0.000000
vt 0.666667 1.000000
vt 0.000000 1.000000
vt 0.333333 1.000000
vt -0.000000 0.000000
vt 0.333333 -0.000000
vt 0.333333 1.000000
s 0
usemtl Material
f 1/1/1 5/12/1 7/17/1 3/7/1
f 4/9/2 3/7/2 7/18/2 8/20/2
f 8/21/3 7/19/3 5/13/3 6/15/3
f 6/16/4 2/4/4 4/10/4 8/22/4
f 2/5/5 1/2/5 3/8/5 4/11/5
f 6/16/6 5/14/6 1/3/6 2/6/6
