# Blender 3.4.1
# www.blender.org
mtllib dungeon_floor.mtl
o dungeon_floor
v 1.000000 1.000000 -1.000000
v 1.000000 -1.000000 -1.000000
v 1.000000 1.000000 1.000000
v 1.000000 -1.000000 1.000000
v -1.000000 1.000000 -1.000000
v -1.000000 -1.000000 -1.000000
v -1.000000 1.000000 1.000000
v -1.000000 -1.000000 1.000000
vn -0.0000 1.0000 -0.0000
vn -0.0000 -0.0000 1.0000
vn -1.0000 -0.0000 -0.0000
vn -0.0000 -1.0000 -0.0000
vn 1.0000 -0.0000 -0.0000
vn -0.0000 -0.0000 -1.0000
vt 0.666667 0.000000
vt 1.000000 1.000000
vt 0.666667 1.000000
vt 1.000000 0.000000
vt 0.666667 0.000000
vt 1.000000 1.000000
vt 0.666667 1.000000
vt 1.000000 0.000000
vt 1.000000 1.000000
vt 0.666667 0.000000
vt 1.000000 0.000000
vt 0.666667 1.000000
vt 1.000000 1.000000
vt 0.666667 0.000000
vt 1.000000 0.000000
vt 0.666667 1.000000
vt 1.000000 1.000000
vt 0.666667 0.000000
vt 1.000000 0.000000
vt 0.666667 1.000000
s 0
usemtl Material.003
f 1/1/1 5/11/1 7/17/1 3/7/1
f 4/8/2 3/6/2 7/16/2 8/18/2
f 8/19/3 7/17/3 5/12/3 6/14/3
f 6/14/4 2/4/4 4/9/4 8/20/4
f 2/4/5 1/2/5 3/7/5 4/10/5
f 6/15/6 5/13/6 1/3/6 2/5/6
