# Blender 3.4.1
# www.blender.org
mtllib trap_pressure_plate.mtl
o Cube
v 0.500000 0.100000 -0.500000
v 0.500000 -0.100000 -0.500000
v 0.500000 0.100000 0.500000
v 0.500000 -0.100000 0.500000
v -0.500000 0.100000 -0.500000
v -0.500000 -0.100000 -0.500000
v -0.500000 0.100000 0.500000
v -0.500000 -0.100000 0.500000
v -0.600000 -0.100000 -0.400000
v 0.600000 0.100000 -0.400000
v -0.600000 0.100000 -0.400000
v 0.600000 -0.100000 -0.400000
v -0.400000 -0.100000 -0.600000
v -0.400000 0.100000 0.600000
v -0.400000 -0.100000 0.600000
v -0.400000 0.100000 -0.600000
v -0.400000 -0.100000 -0.400000
v -0.400000 0.100000 -0.400000
v 0.420000 -0.100000 0.600000
v 0.420000 0.100000 -0.600000
v 0.420000 0.100000 -0.400000
v 0.420000 -0.100000 -0.600000
v 0.420000 0.100000 0.600000
v 0.420000 -0.100000 -0.400000
v -0.600000 -0.100000 0.420000
v 0.600000 0.100000 0.420000
v -0.600000 0.100000 0.420000
v 0.600000 -0.100000 0.420000
v -0.400000 -0.100000 0.420000
v -0.400000 0.100000 0.420000
v 0.420000 0.100000 0.420000
v 0.420000 -0.100000 0.420000
vn -0.0000 1.0000 -0.0000
vn -0.7071 -0.0000 0.7071
vn -0.7071 -0.0000 -0.7071
vn -0.0000 -1.0000 -0.0000
vn 0.6247 -0.0000 0.7809
vn 0.7809 -0.0000 -0.6247
vn 0.7071 -0.0000 -0.7071
vn -1.0000 -0.0000 -0.0000
vn -0.0000 -0.0000 1.0000
vn 0.7809 -0.0000 0.6247
vn -0.0000 -0.0000 -1.0000
vn -0.6247 -0.0000 0.7809
vn 1.0000 -0.0000 -0.0000
vt 1.000000 1.000000
vt 1.000000 0.000000
vt 0.500000 1.000000
vt 0.912412 1.000000
vt 0.948093 0.000000
vt 1.000000 0.000000
vt 1.000000 1.000000
vt 0.500000 0.000000
vt 1.000000 0.000000
vt 1.000000 1.000000
vt 0.948093 1.000000
vt 0.915603 0.000000
vt 1.000000 1.000000
vt 0.000000 1.000000
vt 1.000000 0.000000
vt 0.930868 1.000000
vt 0.500000 0.000000
vt 0.912412 0.000000
vt 0.000000 0.000000
vt 1.000000 1.000000
vt 1.000000 0.000000
vt 0.915603 1.000000
vt 0.500000 1.000000
vt 0.930868 0.000000
vt 0.930868 0.900000
vt 0.500000 0.100000
vt 0.500000 0.900000
vt 1.000000 0.100000
vt 1.000000 0.900000
vt 0.000000 0.900000
vt 0.948093 0.100000
vt 1.000000 0.100000
vt 0.550000 0.000000
vt 0.912412 0.100000
vt 1.000000 0.900000
vt 0.050000 0.000000
vt 0.915603 0.900000
vt 0.550000 1.000000
vt 0.050000 1.000000
vt 1.000000 0.100000
vt 0.550000 0.100000
vt 0.050000 0.900000
vt 0.915603 0.090000
vt 0.955000 1.000000
vt 0.455000 1.000000
vt 1.000000 0.910000
vt 0.455000 0.900000
vt 0.955000 0.000000
vt 0.912412 0.910000
vt 0.455000 0.000000
vt 1.000000 0.090000
vt 0.955000 0.100000
vt 0.500000 0.910000
vt 0.930868 0.090000
vt 0.500000 0.090000
vt 1.000000 0.910000
vt 1.000000 0.090000
vt 0.000000 0.090000
vt 0.948093 0.910000
vt 1.000000 0.910000
vt 0.550000 0.910000
vt 0.050000 0.090000
vt 0.455000 0.090000
vt 0.955000 0.910000
s 0
usemtl Material
f 30/62/1 27/58/1 7/19/1 14/36/1
f 15/37/2 14/35/2 7/20/2 8/22/2
f 9/25/3 11/29/3 5/13/3 6/16/3
f 32/64/4 28/60/4 4/10/4 19/44/4
f 28/59/5 26/56/5 3/7/5 4/11/5
f 22/49/6 20/46/6 1/1/6 2/4/6
f 2/5/7 1/2/7 10/28/7 12/31/7
f 22/48/4 2/6/4 12/32/4 24/52/4
f 25/54/8 27/57/8 11/29/8 9/25/8
f 16/39/1 5/14/1 11/30/1 18/42/1
f 20/45/1 16/39/1 18/42/1 21/47/1
f 6/17/4 13/33/4 17/41/4 9/26/4
f 6/18/3 5/15/3 16/40/3 13/34/3
f 25/53/4 29/61/4 15/38/4 8/23/4
f 19/43/9 23/51/9 14/35/9 15/37/9
f 31/63/1 30/62/1 14/36/1 23/50/1
f 26/55/1 31/63/1 23/50/1 3/8/1
f 4/12/10 3/9/10 23/51/10 19/43/10
f 1/3/1 20/45/1 21/47/1 10/27/1
f 13/33/4 22/48/4 24/52/4 17/41/4
f 13/34/11 16/40/11 20/46/11 22/49/11
f 29/61/4 32/64/4 19/44/4 15/38/4
f 17/41/4 24/52/4 32/64/4 29/61/4
f 10/27/1 21/47/1 31/63/1 26/55/1
f 21/47/1 18/42/1 30/62/1 31/63/1
f 9/26/4 17/41/4 29/61/4 25/53/4
f 8/24/12 7/21/12 27/57/12 25/54/12
f 12/31/13 10/28/13 26/56/13 28/59/13
f 24/52/4 12/32/4 28/60/4 32/64/4
f 18/42/1 11/30/1 27/58/1 30/62/1
